<?xml version="1.0" encoding="UTF-8" standalone="no"?>
<!DOCTYPE svg PUBLIC "-//W3C//DTD SVG 1.1//EN"
 "http://www.w3.org/Graphics/SVG/1.1/DTD/svg11.dtd">
<!-- Generated by graphviz version 2.43.0 (0)
 -->
<!-- Title: CFG for &#39;foo&#39; function Pages: 1 -->
<svg width="907pt" height="656pt"
 viewBox="0.00 0.00 906.50 656.00" xmlns="http://www.w3.org/2000/svg" xmlns:xlink="http://www.w3.org/1999/xlink">
<g id="graph0" class="graph" transform="scale(1 1) rotate(0) translate(4 652)">
<title>CFG for &#39;foo&#39; function</title>
<polygon fill="white" stroke="transparent" points="-4,4 -4,-652 902.5,-652 902.5,4 -4,4"/>
<text text-anchor="middle" x="449.25" y="-7.8" font-family="Times,serif" font-size="14.00">CFG for &#39;foo&#39; function</text>
<!-- Node0x6e7de0 -->
<g id="node1" class="node">
<title>Node0x6e7de0</title>
<polygon fill="#abc8fd" fill-opacity="0.439216" stroke="#3d50c3" points="186,-609.5 186,-647.5 289,-647.5 289,-609.5 186,-609.5"/>
<text text-anchor="start" x="194" y="-632.3" font-family="Times,serif" font-size="14.00">%2:</text>
<text text-anchor="start" x="194" y="-617.3" font-family="Times,serif" font-size="14.00"> br label %3</text>
</g>
<!-- Node0x6e8450 -->
<g id="node2" class="node">
<title>Node0x6e8450</title>
<polygon fill="#b70d28" fill-opacity="0.439216" stroke="#b70d28" points="91,-361.5 91,-572.5 384,-572.5 384,-361.5 91,-361.5"/>
<text text-anchor="start" x="99" y="-557.3" font-family="Times,serif" font-size="14.00">%3:</text>
<text text-anchor="start" x="99" y="-542.3" font-family="Times,serif" font-size="14.00">3: </text>
<text text-anchor="start" x="99" y="-527.3" font-family="Times,serif" font-size="14.00"> %.05 = phi i32 [ 0, %2 ], [ %19, %15 ]</text>
<text text-anchor="start" x="99" y="-512.3" font-family="Times,serif" font-size="14.00"> %.04 = phi i32 [ 0, %2 ], [ %17, %15 ]</text>
<text text-anchor="start" x="99" y="-497.3" font-family="Times,serif" font-size="14.00"> %.03 = phi i32 [ 0, %2 ], [ %16, %15 ]</text>
<text text-anchor="start" x="99" y="-482.3" font-family="Times,serif" font-size="14.00"> %.01 = phi i32 [ 9, %2 ], [ %.1, %15 ]</text>
<text text-anchor="start" x="99" y="-467.3" font-family="Times,serif" font-size="14.00"> %.0 = phi i32 [ %1, %2 ], [ %4, %15 ]</text>
<text text-anchor="start" x="99" y="-452.3" font-family="Times,serif" font-size="14.00"> %4 = add nsw i32 %.0, 1</text>
<text text-anchor="start" x="99" y="-437.3" font-family="Times,serif" font-size="14.00"> %5 = add nsw i32 %0, 3</text>
<text text-anchor="start" x="99" y="-422.3" font-family="Times,serif" font-size="14.00"> %6 = add nsw i32 %0, 7</text>
<text text-anchor="start" x="99" y="-407.3" font-family="Times,serif" font-size="14.00"> %7 = icmp slt i32 %4, 5</text>
<text text-anchor="start" x="99" y="-392.3" font-family="Times,serif" font-size="14.00"> br i1 %7, label %8, label %11</text>
<polyline fill="none" stroke="#b70d28" points="91,-384.5 384,-384.5 "/>
<text text-anchor="middle" x="164" y="-369.3" font-family="Times,serif" font-size="14.00">T</text>
<polyline fill="none" stroke="#b70d28" points="237,-361.5 237,-384.5 "/>
<text text-anchor="middle" x="310.5" y="-369.3" font-family="Times,serif" font-size="14.00">F</text>
</g>
<!-- Node0x6e7de0&#45;&gt;Node0x6e8450 -->
<g id="edge1" class="edge">
<title>Node0x6e7de0&#45;&gt;Node0x6e8450</title>
<path fill="none" stroke="black" d="M237.5,-609.2C237.5,-601.9 237.5,-592.85 237.5,-582.89"/>
<polygon fill="black" stroke="black" points="241,-582.65 237.5,-572.65 234,-582.65 241,-582.65"/>
</g>
<!-- Node0x6e84a0 -->
<g id="node3" class="node">
<title>Node0x6e84a0</title>
<polygon fill="#dc5d4a" fill-opacity="0.439216" stroke="#3d50c3" points="0,-222.5 0,-305.5 209,-305.5 209,-222.5 0,-222.5"/>
<text text-anchor="start" x="8" y="-290.3" font-family="Times,serif" font-size="14.00">%8:</text>
<text text-anchor="start" x="8" y="-275.3" font-family="Times,serif" font-size="14.00">8: </text>
<text text-anchor="start" x="8" y="-260.3" font-family="Times,serif" font-size="14.00"> %9 = add nsw i32 %.01, 2</text>
<text text-anchor="start" x="8" y="-245.3" font-family="Times,serif" font-size="14.00"> %10 = add nsw i32 %0, 3</text>
<text text-anchor="start" x="8" y="-230.3" font-family="Times,serif" font-size="14.00"> br label %15</text>
</g>
<!-- Node0x6e8450&#45;&gt;Node0x6e84a0 -->
<g id="edge2" class="edge">
<title>Node0x6e8450:s0&#45;&gt;Node0x6e84a0</title>
<path fill="none" stroke="black" d="M89.5,-373C64.07,-373 69.46,-343.27 80.32,-315.01"/>
<polygon fill="black" stroke="black" points="83.65,-316.1 84.18,-305.52 77.17,-313.47 83.65,-316.1"/>
</g>
<!-- Node0x6e84f0 -->
<g id="node4" class="node">
<title>Node0x6e84f0</title>
<polygon fill="#dc5d4a" fill-opacity="0.439216" stroke="#3d50c3" points="265.5,-203.5 265.5,-324.5 515.5,-324.5 515.5,-203.5 265.5,-203.5"/>
<text text-anchor="start" x="273.5" y="-309.3" font-family="Times,serif" font-size="14.00">%11:</text>
<text text-anchor="start" x="273.5" y="-294.3" font-family="Times,serif" font-size="14.00">11: </text>
<text text-anchor="start" x="273.5" y="-279.3" font-family="Times,serif" font-size="14.00"> %12 = sub nsw i32 %.01, 1</text>
<text text-anchor="start" x="273.5" y="-264.3" font-family="Times,serif" font-size="14.00"> %13 = add nsw i32 %0, 4</text>
<text text-anchor="start" x="273.5" y="-249.3" font-family="Times,serif" font-size="14.00"> %14 = icmp sge i32 %4, 10</text>
<text text-anchor="start" x="273.5" y="-234.3" font-family="Times,serif" font-size="14.00"> br i1 %14, label %20, label %15</text>
<polyline fill="none" stroke="#3d50c3" points="265.5,-226.5 515.5,-226.5 "/>
<text text-anchor="middle" x="328" y="-211.3" font-family="Times,serif" font-size="14.00">T</text>
<polyline fill="none" stroke="#3d50c3" points="390.5,-203.5 390.5,-226.5 "/>
<text text-anchor="middle" x="453" y="-211.3" font-family="Times,serif" font-size="14.00">F</text>
</g>
<!-- Node0x6e8450&#45;&gt;Node0x6e84f0 -->
<g id="edge3" class="edge">
<title>Node0x6e8450:s1&#45;&gt;Node0x6e84f0</title>
<path fill="none" stroke="black" d="M385.5,-373C404.78,-373 409.39,-355.61 408,-334.78"/>
<polygon fill="black" stroke="black" points="411.47,-334.26 406.93,-324.69 404.51,-335 411.47,-334.26"/>
</g>
<!-- Node0x6e8540 -->
<g id="node5" class="node">
<title>Node0x6e8540</title>
<polygon fill="#b70d28" fill-opacity="0.439216" stroke="#b70d28" points="13,-23.5 13,-166.5 328,-166.5 328,-23.5 13,-23.5"/>
<text text-anchor="start" x="21" y="-151.3" font-family="Times,serif" font-size="14.00">%15:</text>
<text text-anchor="start" x="21" y="-136.3" font-family="Times,serif" font-size="14.00">15: </text>
<text text-anchor="start" x="21" y="-121.3" font-family="Times,serif" font-size="14.00"> %.02 = phi i32 [ %10, %8 ], [ %13, %11 ]</text>
<text text-anchor="start" x="21" y="-106.3" font-family="Times,serif" font-size="14.00"> %.1 = phi i32 [ %9, %8 ], [ %12, %11 ]</text>
<text text-anchor="start" x="21" y="-91.3" font-family="Times,serif" font-size="14.00"> %16 = add nsw i32 %5, 7</text>
<text text-anchor="start" x="21" y="-76.3" font-family="Times,serif" font-size="14.00"> %17 = add nsw i32 %.02, 2</text>
<text text-anchor="start" x="21" y="-61.3" font-family="Times,serif" font-size="14.00"> %18 = add nsw i32 %0, 7</text>
<text text-anchor="start" x="21" y="-46.3" font-family="Times,serif" font-size="14.00"> %19 = add nsw i32 %6, 5</text>
<text text-anchor="start" x="21" y="-31.3" font-family="Times,serif" font-size="14.00"> br label %3</text>
</g>
<!-- Node0x6e84a0&#45;&gt;Node0x6e8540 -->
<g id="edge4" class="edge">
<title>Node0x6e84a0&#45;&gt;Node0x6e8540</title>
<path fill="none" stroke="black" d="M120.65,-222.15C126.16,-208.18 132.54,-192.04 138.86,-176.07"/>
<polygon fill="black" stroke="black" points="142.14,-177.29 142.56,-166.7 135.63,-174.72 142.14,-177.29"/>
</g>
<!-- Node0x6e84f0&#45;&gt;Node0x6e8540 -->
<g id="edge6" class="edge">
<title>Node0x6e84f0:s1&#45;&gt;Node0x6e8540</title>
<path fill="none" stroke="black" d="M453.5,-203C453.5,-149.02 388.18,-185.58 337.5,-167 337.4,-166.96 337.31,-166.93 337.21,-166.89"/>
<polygon fill="black" stroke="black" points="338.7,-163.72 328.11,-163.51 336.26,-170.28 338.7,-163.72"/>
</g>
<!-- Node0x6e8590 -->
<g id="node6" class="node">
<title>Node0x6e8590</title>
<polygon fill="#abc8fd" fill-opacity="0.439216" stroke="#3d50c3" points="346.5,-46 346.5,-144 898.5,-144 898.5,-46 346.5,-46"/>
<text text-anchor="start" x="354.5" y="-128.8" font-family="Times,serif" font-size="14.00">%20:</text>
<text text-anchor="start" x="354.5" y="-113.8" font-family="Times,serif" font-size="14.00">20: </text>
<text text-anchor="start" x="354.5" y="-98.8" font-family="Times,serif" font-size="14.00"> %21 = call i32 (i8*, ...) @printf(i8* getelementptr inbounds ([25 x i8], [25</text>
<text text-anchor="start" x="354.5" y="-83.8" font-family="Times,serif" font-size="14.00">... x i8]* @.str, i64 0, i64 0), i32 %12, i32 %13, i32 %.03, i32 %.04, i32 %6,</text>
<text text-anchor="start" x="354.5" y="-68.8" font-family="Times,serif" font-size="14.00">... i32 %.05, i32 %5, i32 %4)</text>
<text text-anchor="start" x="354.5" y="-53.8" font-family="Times,serif" font-size="14.00"> ret void</text>
</g>
<!-- Node0x6e84f0&#45;&gt;Node0x6e8590 -->
<g id="edge5" class="edge">
<title>Node0x6e84f0:s0&#45;&gt;Node0x6e8590</title>
<path fill="none" stroke="black" d="M327.5,-203C327.5,-181.38 355.87,-162.87 395.01,-147.64"/>
<polygon fill="black" stroke="black" points="396.49,-150.82 404.62,-144.03 394.03,-144.27 396.49,-150.82"/>
</g>
<!-- Node0x6e8540&#45;&gt;Node0x6e8450 -->
<g id="edge7" class="edge">
<title>Node0x6e8540&#45;&gt;Node0x6e8450</title>
<path fill="none" stroke="black" d="M205.54,-166.77C210.26,-178.63 214.5,-190.99 217.5,-203 229.42,-250.7 234.86,-304.65 237.16,-351.22"/>
<polygon fill="black" stroke="black" points="233.67,-351.52 237.61,-361.35 240.66,-351.2 233.67,-351.52"/>
</g>
</g>
</svg>
