<?xml version="1.0" encoding="UTF-8" standalone="no"?>
<!DOCTYPE svg PUBLIC "-//W3C//DTD SVG 1.1//EN"
 "http://www.w3.org/Graphics/SVG/1.1/DTD/svg11.dtd">
<!-- Generated by graphviz version 8.0.5 (0)
 -->
<!-- Title: CFG for &#39;populate&#39; function Pages: 1 -->
<svg width="689pt" height="807pt"
 viewBox="0.00 0.00 689.00 807.00" xmlns="http://www.w3.org/2000/svg" xmlns:xlink="http://www.w3.org/1999/xlink">
<g id="graph0" class="graph" transform="scale(1 1) rotate(0) translate(4 803)">
<title>CFG for &#39;populate&#39; function</title>
<polygon fill="white" stroke="none" points="-4,4 -4,-803 685,-803 685,4 -4,4"/>
<text text-anchor="middle" x="340.5" y="-7.2" font-family="Times,serif" font-size="14.00">CFG for &#39;populate&#39; function</text>
<!-- Node0x561ea45ee040 -->
<g id="node1" class="node">
<title>Node0x561ea45ee040</title>
<polygon fill="#b9d0f9" fill-opacity="0.439216" stroke="#3d50c3" points="262.88,-749.25 262.88,-790.25 346.38,-790.25 346.38,-749.25 262.88,-749.25"/>
<text text-anchor="start" x="270.88" y="-772.95" font-family="Times,serif" font-size="14.00">%3:</text>
<text text-anchor="start" x="270.88" y="-756.45" font-family="Times,serif" font-size="14.00"> br label %4</text>
</g>
<!-- Node0x561ea45ee790 -->
<g id="node2" class="node">
<title>Node0x561ea45ee790</title>
<polygon fill="#b70d28" fill-opacity="0.439216" stroke="#b70d28" points="185.25,-589 185.25,-704 424,-704 424,-589 185.25,-589"/>
<text text-anchor="start" x="193.25" y="-686.7" font-family="Times,serif" font-size="14.00">%4:</text>
<text text-anchor="start" x="193.25" y="-670.2" font-family="Times,serif" font-size="14.00">4: </text>
<text text-anchor="start" x="193.25" y="-653.7" font-family="Times,serif" font-size="14.00"> %.01 = phi i32 [ 0, %3 ], [ %16, %15 ]</text>
<text text-anchor="start" x="193.25" y="-637.2" font-family="Times,serif" font-size="14.00"> %5 = icmp slt i32 %.01, 10</text>
<text text-anchor="start" x="193.25" y="-620.7" font-family="Times,serif" font-size="14.00"> br i1 %5, label %6, label %28</text>
<polyline fill="none" stroke="#b70d28" points="185.25,-613.5 424,-613.5"/>
<text text-anchor="middle" x="244.88" y="-596.2" font-family="Times,serif" font-size="14.00">T</text>
<polyline fill="none" stroke="#b70d28" points="304.5,-589 304.5,-613.5"/>
<text text-anchor="middle" x="364.25" y="-596.2" font-family="Times,serif" font-size="14.00">F</text>
</g>
<!-- Node0x561ea45ee040&#45;&gt;Node0x561ea45ee790 -->
<g id="edge1" class="edge">
<title>Node0x561ea45ee040&#45;&gt;Node0x561ea45ee790</title>
<path fill="none" stroke="black" d="M304.62,-749.27C304.62,-739.59 304.62,-727.27 304.62,-714.57"/>
<polygon fill="black" stroke="black" points="308.13,-714.86 304.62,-704.86 301.13,-714.86 308.13,-714.86"/>
</g>
<!-- Node0x561ea45ef130 -->
<g id="node3" class="node">
<title>Node0x561ea45ef130</title>
<polygon fill="#bb1b2c" fill-opacity="0.439216" stroke="#b70d28" points="0,-329.5 0,-552 309.25,-552 309.25,-329.5 0,-329.5"/>
<text text-anchor="start" x="8" y="-534.7" font-family="Times,serif" font-size="14.00">%6:</text>
<text text-anchor="start" x="8" y="-518.2" font-family="Times,serif" font-size="14.00">6: </text>
<text text-anchor="start" x="8" y="-501.7" font-family="Times,serif" font-size="14.00"> %7 = sext i32 %.01 to i64</text>
<text text-anchor="start" x="8" y="-485.2" font-family="Times,serif" font-size="14.00"> %8 = getelementptr inbounds i32, ptr %0, i64 %7</text>
<text text-anchor="start" x="8" y="-468.7" font-family="Times,serif" font-size="14.00"> store i32 %.01, ptr %8, align 4</text>
<text text-anchor="start" x="8" y="-452.2" font-family="Times,serif" font-size="14.00"> %9 = sext i32 %.01 to i64</text>
<text text-anchor="start" x="8" y="-435.7" font-family="Times,serif" font-size="14.00"> %10 = getelementptr inbounds i32, ptr %0, i64 %9</text>
<text text-anchor="start" x="8" y="-419.2" font-family="Times,serif" font-size="14.00"> %11 = load i32, ptr %10, align 4</text>
<text text-anchor="start" x="8" y="-402.7" font-family="Times,serif" font-size="14.00"> %12 = mul nsw i32 %11, 2</text>
<text text-anchor="start" x="8" y="-386.2" font-family="Times,serif" font-size="14.00"> %13 = sext i32 %.01 to i64</text>
<text text-anchor="start" x="8" y="-369.7" font-family="Times,serif" font-size="14.00"> %14 = getelementptr inbounds i32, ptr %1, i64 %13</text>
<text text-anchor="start" x="8" y="-353.2" font-family="Times,serif" font-size="14.00"> store i32 %12, ptr %14, align 4</text>
<text text-anchor="start" x="8" y="-336.7" font-family="Times,serif" font-size="14.00"> br label %20</text>
</g>
<!-- Node0x561ea45ee790&#45;&gt;Node0x561ea45ef130 -->
<g id="edge2" class="edge">
<title>Node0x561ea45ee790:s0&#45;&gt;Node0x561ea45ef130</title>
<path fill="none" stroke="black" d="M184.62,-601.5C161.38,-601.5 149.99,-584.96 145.23,-562.52"/>
<polygon fill="black" stroke="black" points="148.55,-562.14 143.49,-552.83 141.64,-563.26 148.55,-562.14"/>
</g>
<!-- Node0x561ea45ef1c0 -->
<g id="node4" class="node">
<title>Node0x561ea45ef1c0</title>
<polygon fill="#b9d0f9" fill-opacity="0.439216" stroke="#3d50c3" points="598.75,-412 598.75,-469.5 660.5,-469.5 660.5,-412 598.75,-412"/>
<text text-anchor="start" x="606.75" y="-452.2" font-family="Times,serif" font-size="14.00">%28:</text>
<text text-anchor="start" x="606.75" y="-435.7" font-family="Times,serif" font-size="14.00">28: </text>
<text text-anchor="start" x="606.75" y="-419.2" font-family="Times,serif" font-size="14.00"> ret void</text>
</g>
<!-- Node0x561ea45ee790&#45;&gt;Node0x561ea45ef1c0 -->
<g id="edge3" class="edge">
<title>Node0x561ea45ee790:s1&#45;&gt;Node0x561ea45ef1c0</title>
<path fill="none" stroke="black" d="M424.62,-601.5C431.65,-601.5 427.81,-592.44 433.62,-588.5 492.51,-548.56 536.39,-599.71 589.62,-552.5 610.45,-534.03 620.44,-503.88 625.22,-479.7"/>
<polygon fill="black" stroke="black" points="628.81,-480.53 627.08,-470.07 621.91,-479.32 628.81,-480.53"/>
</g>
<!-- Node0x561ea45ee850 -->
<g id="node5" class="node">
<title>Node0x561ea45ee850</title>
<polygon fill="#bb1b2c" fill-opacity="0.439216" stroke="#b70d28" points="0,-136 0,-292.5 309.25,-292.5 309.25,-136 0,-136"/>
<text text-anchor="start" x="8" y="-275.2" font-family="Times,serif" font-size="14.00">%20:</text>
<text text-anchor="start" x="8" y="-258.7" font-family="Times,serif" font-size="14.00">20: </text>
<text text-anchor="start" x="8" y="-242.2" font-family="Times,serif" font-size="14.00"> %21 = sext i32 %.01 to i64</text>
<text text-anchor="start" x="8" y="-225.7" font-family="Times,serif" font-size="14.00"> %22 = getelementptr inbounds i32, ptr %1, i64 %21</text>
<text text-anchor="start" x="8" y="-209.2" font-family="Times,serif" font-size="14.00"> %23 = load i32, ptr %22, align 4</text>
<text text-anchor="start" x="8" y="-192.7" font-family="Times,serif" font-size="14.00"> %24 = sext i32 %.01 to i64</text>
<text text-anchor="start" x="8" y="-176.2" font-family="Times,serif" font-size="14.00"> %25 = getelementptr inbounds i32, ptr %2, i64 %24</text>
<text text-anchor="start" x="8" y="-159.7" font-family="Times,serif" font-size="14.00"> store i32 %23, ptr %25, align 4</text>
<text text-anchor="start" x="8" y="-143.2" font-family="Times,serif" font-size="14.00"> br label %15</text>
</g>
<!-- Node0x561ea45ef130&#45;&gt;Node0x561ea45ee850 -->
<g id="edge4" class="edge">
<title>Node0x561ea45ef130&#45;&gt;Node0x561ea45ee850</title>
<path fill="none" stroke="black" d="M154.62,-329.8C154.62,-320.9 154.62,-311.97 154.62,-303.25"/>
<polygon fill="black" stroke="black" points="158.13,-303.33 154.62,-293.33 151.13,-303.33 158.13,-303.33"/>
</g>
<!-- Node0x561ea45eeee0 -->
<g id="node6" class="node">
<title>Node0x561ea45eeee0</title>
<polygon fill="#bb1b2c" fill-opacity="0.439216" stroke="#b70d28" points="158.5,-25 158.5,-99 332.75,-99 332.75,-25 158.5,-25"/>
<text text-anchor="start" x="166.5" y="-81.7" font-family="Times,serif" font-size="14.00">%15:</text>
<text text-anchor="start" x="166.5" y="-65.2" font-family="Times,serif" font-size="14.00">15: </text>
<text text-anchor="start" x="166.5" y="-48.7" font-family="Times,serif" font-size="14.00"> %16 = add nsw i32 %.01, 1</text>
<text text-anchor="start" x="166.5" y="-32.2" font-family="Times,serif" font-size="14.00"> br label %4, !llvm.loop !6</text>
</g>
<!-- Node0x561ea45ee850&#45;&gt;Node0x561ea45eeee0 -->
<g id="edge9" class="edge">
<title>Node0x561ea45ee850&#45;&gt;Node0x561ea45eeee0</title>
<path fill="none" stroke="black" d="M201.19,-136.36C207.04,-126.71 212.86,-117.1 218.27,-108.17"/>
<polygon fill="black" stroke="black" points="221.78,-110.13 223.96,-99.77 215.79,-106.51 221.78,-110.13"/>
</g>
<!-- Node0x561ea45eeee0&#45;&gt;Node0x561ea45ee790 -->
<g id="edge5" class="edge">
<title>Node0x561ea45eeee0&#45;&gt;Node0x561ea45ee790</title>
<path fill="none" stroke="black" d="M292.77,-98.83C303.25,-109.38 312.93,-121.81 318.62,-135.5 380.36,-283.83 347.58,-478.01 323.23,-578.59"/>
<polygon fill="black" stroke="black" points="319.61,-577.66 320.61,-588.21 326.41,-579.34 319.61,-577.66"/>
</g>
<!-- Node0x561ea45f02b0 -->
<g id="node7" class="node">
<title>Node0x561ea45f02b0</title>
<polygon fill="#3d50c3" fill-opacity="0.439216" stroke="#3d50c3" points="516.5,-741 516.5,-798.5 606.75,-798.5 606.75,-741 516.5,-741"/>
<text text-anchor="start" x="524.5" y="-781.2" font-family="Times,serif" font-size="14.00">%17:</text>
<text text-anchor="start" x="524.5" y="-764.7" font-family="Times,serif" font-size="14.00">17: </text>
<text text-anchor="start" x="524.5" y="-748.2" font-family="Times,serif" font-size="14.00"> br label %18</text>
</g>
<!-- Node0x561ea45f0340 -->
<g id="node8" class="node">
<title>Node0x561ea45f0340</title>
<polygon fill="#3d50c3" fill-opacity="0.439216" stroke="#3d50c3" points="442.25,-589 442.25,-704 681,-704 681,-589 442.25,-589"/>
<text text-anchor="start" x="450.25" y="-686.7" font-family="Times,serif" font-size="14.00">%18:</text>
<text text-anchor="start" x="450.25" y="-670.2" font-family="Times,serif" font-size="14.00">18: </text>
<text text-anchor="start" x="450.25" y="-653.7" font-family="Times,serif" font-size="14.00"> %.0 = phi i32 [ 0, %17 ], [ %27, %26 ]</text>
<text text-anchor="start" x="450.25" y="-637.2" font-family="Times,serif" font-size="14.00"> %19 = icmp slt i32 %.01, 10</text>
<text text-anchor="start" x="450.25" y="-620.7" font-family="Times,serif" font-size="14.00"> br i1 %19, label %26, label %28</text>
<polyline fill="none" stroke="#3d50c3" points="442.25,-613.5 681,-613.5"/>
<text text-anchor="middle" x="501.88" y="-596.2" font-family="Times,serif" font-size="14.00">T</text>
<polyline fill="none" stroke="#3d50c3" points="561.5,-589 561.5,-613.5"/>
<text text-anchor="middle" x="621.25" y="-596.2" font-family="Times,serif" font-size="14.00">F</text>
</g>
<!-- Node0x561ea45f02b0&#45;&gt;Node0x561ea45f0340 -->
<g id="edge6" class="edge">
<title>Node0x561ea45f02b0&#45;&gt;Node0x561ea45f0340</title>
<path fill="none" stroke="black" d="M561.62,-741.24C561.62,-733.11 561.62,-723.85 561.62,-714.38"/>
<polygon fill="black" stroke="black" points="565.13,-714.64 561.62,-704.64 558.13,-714.64 565.13,-714.64"/>
</g>
<!-- Node0x561ea45f0340&#45;&gt;Node0x561ea45ef1c0 -->
<g id="edge8" class="edge">
<title>Node0x561ea45f0340:s1&#45;&gt;Node0x561ea45ef1c0</title>
<path fill="none" stroke="black" d="M621.62,-588.5C621.62,-551.62 624.18,-509.61 626.4,-480.01"/>
<polygon fill="black" stroke="black" points="629.94,-480.55 627.22,-470.31 622.96,-480.01 629.94,-480.55"/>
</g>
<!-- Node0x561ea45f0400 -->
<g id="node9" class="node">
<title>Node0x561ea45f0400</title>
<polygon fill="#3d50c3" fill-opacity="0.439216" stroke="#3d50c3" points="406.5,-403.75 406.5,-477.75 580.75,-477.75 580.75,-403.75 406.5,-403.75"/>
<text text-anchor="start" x="414.5" y="-460.45" font-family="Times,serif" font-size="14.00">%26:</text>
<text text-anchor="start" x="414.5" y="-443.95" font-family="Times,serif" font-size="14.00">26: </text>
<text text-anchor="start" x="414.5" y="-427.45" font-family="Times,serif" font-size="14.00"> %27 = add nsw i32 %.01, 1</text>
<text text-anchor="start" x="414.5" y="-410.95" font-family="Times,serif" font-size="14.00"> br label %18, !llvm.loop !8</text>
</g>
<!-- Node0x561ea45f0340&#45;&gt;Node0x561ea45f0400 -->
<g id="edge7" class="edge">
<title>Node0x561ea45f0340:s0&#45;&gt;Node0x561ea45f0400</title>
<path fill="none" stroke="black" d="M501.62,-588.5C497.02,-555.05 492.67,-517.37 490.73,-488.57"/>
<polygon fill="black" stroke="black" points="494.17,-488.38 490.1,-478.6 487.18,-488.79 494.17,-488.38"/>
</g>
<!-- Node0x561ea45f0400&#45;&gt;Node0x561ea45f0340 -->
<g id="edge10" class="edge">
<title>Node0x561ea45f0400&#45;&gt;Node0x561ea45f0340</title>
<path fill="none" stroke="black" d="M503.24,-477.48C506.04,-504.3 506.73,-542.29 502.98,-577.35"/>
<polygon fill="black" stroke="black" points="499.41,-576.77 501.68,-587.12 506.36,-577.61 499.41,-576.77"/>
</g>
</g>
</svg>
