<?xml version="1.0" encoding="UTF-8" standalone="no"?>
<!DOCTYPE svg PUBLIC "-//W3C//DTD SVG 1.1//EN"
 "http://www.w3.org/Graphics/SVG/1.1/DTD/svg11.dtd">
<!-- Generated by graphviz version 8.0.5 (0)
 -->
<!-- Title: CFG for &#39;populate&#39; function Pages: 1 -->
<svg width="538pt" height="943pt"
 viewBox="0.00 0.00 538.00 942.50" xmlns="http://www.w3.org/2000/svg" xmlns:xlink="http://www.w3.org/1999/xlink">
<g id="graph0" class="graph" transform="scale(1 1) rotate(0) translate(4 938.5)">
<title>CFG for &#39;populate&#39; function</title>
<polygon fill="white" stroke="none" points="-4,4 -4,-938.5 534,-938.5 534,4 -4,4"/>
<text text-anchor="middle" x="265" y="-7.2" font-family="Times,serif" font-size="14.00">CFG for &#39;populate&#39; function</text>
<!-- Node0x5627c2da3fb0 -->
<g id="node1" class="node">
<title>Node0x5627c2da3fb0</title>
<polygon fill="#b9d0f9" fill-opacity="0.439216" stroke="#3d50c3" points="295.88,-893 295.88,-934 379.38,-934 379.38,-893 295.88,-893"/>
<text text-anchor="start" x="303.88" y="-916.7" font-family="Times,serif" font-size="14.00">%3:</text>
<text text-anchor="start" x="303.88" y="-900.2" font-family="Times,serif" font-size="14.00"> br label %4</text>
</g>
<!-- Node0x5627c2da4700 -->
<g id="node2" class="node">
<title>Node0x5627c2da4700</title>
<polygon fill="#b70d28" fill-opacity="0.439216" stroke="#b70d28" points="218.25,-741 218.25,-856 457,-856 457,-741 218.25,-741"/>
<text text-anchor="start" x="226.25" y="-838.7" font-family="Times,serif" font-size="14.00">%4:</text>
<text text-anchor="start" x="226.25" y="-822.2" font-family="Times,serif" font-size="14.00">4: </text>
<text text-anchor="start" x="226.25" y="-805.7" font-family="Times,serif" font-size="14.00"> %.01 = phi i32 [ 0, %3 ], [ %16, %15 ]</text>
<text text-anchor="start" x="226.25" y="-789.2" font-family="Times,serif" font-size="14.00"> %5 = icmp slt i32 %.01, 10</text>
<text text-anchor="start" x="226.25" y="-772.7" font-family="Times,serif" font-size="14.00"> br i1 %5, label %6, label %17</text>
<polyline fill="none" stroke="#b70d28" points="218.25,-765.5 457,-765.5"/>
<text text-anchor="middle" x="277.88" y="-748.2" font-family="Times,serif" font-size="14.00">T</text>
<polyline fill="none" stroke="#b70d28" points="337.5,-741 337.5,-765.5"/>
<text text-anchor="middle" x="397.25" y="-748.2" font-family="Times,serif" font-size="14.00">F</text>
</g>
<!-- Node0x5627c2da3fb0&#45;&gt;Node0x5627c2da4700 -->
<g id="edge1" class="edge">
<title>Node0x5627c2da3fb0&#45;&gt;Node0x5627c2da4700</title>
<path fill="none" stroke="black" d="M337.62,-893.07C337.62,-885.38 337.62,-876.05 337.62,-866.29"/>
<polygon fill="black" stroke="black" points="341.13,-866.59 337.62,-856.59 334.13,-866.59 341.13,-866.59"/>
</g>
<!-- Node0x5627c2da50a0 -->
<g id="node3" class="node">
<title>Node0x5627c2da50a0</title>
<polygon fill="#bb1b2c" fill-opacity="0.439216" stroke="#b70d28" points="0,-481.5 0,-704 309.25,-704 309.25,-481.5 0,-481.5"/>
<text text-anchor="start" x="8" y="-686.7" font-family="Times,serif" font-size="14.00">%6:</text>
<text text-anchor="start" x="8" y="-670.2" font-family="Times,serif" font-size="14.00">6: </text>
<text text-anchor="start" x="8" y="-653.7" font-family="Times,serif" font-size="14.00"> %7 = sext i32 %.01 to i64</text>
<text text-anchor="start" x="8" y="-637.2" font-family="Times,serif" font-size="14.00"> %8 = getelementptr inbounds i32, ptr %0, i64 %7</text>
<text text-anchor="start" x="8" y="-620.7" font-family="Times,serif" font-size="14.00"> store i32 %.01, ptr %8, align 4</text>
<text text-anchor="start" x="8" y="-604.2" font-family="Times,serif" font-size="14.00"> %9 = sext i32 %.01 to i64</text>
<text text-anchor="start" x="8" y="-587.7" font-family="Times,serif" font-size="14.00"> %10 = getelementptr inbounds i32, ptr %0, i64 %9</text>
<text text-anchor="start" x="8" y="-571.2" font-family="Times,serif" font-size="14.00"> %11 = load i32, ptr %10, align 4</text>
<text text-anchor="start" x="8" y="-554.7" font-family="Times,serif" font-size="14.00"> %12 = mul nsw i32 %11, 2</text>
<text text-anchor="start" x="8" y="-538.2" font-family="Times,serif" font-size="14.00"> %13 = sext i32 %.01 to i64</text>
<text text-anchor="start" x="8" y="-521.7" font-family="Times,serif" font-size="14.00"> %14 = getelementptr inbounds i32, ptr %1, i64 %13</text>
<text text-anchor="start" x="8" y="-505.2" font-family="Times,serif" font-size="14.00"> store i32 %12, ptr %14, align 4</text>
<text text-anchor="start" x="8" y="-488.7" font-family="Times,serif" font-size="14.00"> br label %15</text>
</g>
<!-- Node0x5627c2da4700&#45;&gt;Node0x5627c2da50a0 -->
<g id="edge2" class="edge">
<title>Node0x5627c2da4700:s0&#45;&gt;Node0x5627c2da50a0</title>
<path fill="none" stroke="black" d="M217.62,-753.5C192.84,-753.5 177.51,-736.66 168.11,-713.91"/>
<polygon fill="black" stroke="black" points="171.15,-713.02 164.43,-704.83 164.57,-715.42 171.15,-713.02"/>
</g>
<!-- Node0x5627c2da5130 -->
<g id="node4" class="node">
<title>Node0x5627c2da5130</title>
<polygon fill="#b9d0f9" fill-opacity="0.439216" stroke="#3d50c3" points="365.5,-564 365.5,-621.5 455.75,-621.5 455.75,-564 365.5,-564"/>
<text text-anchor="start" x="373.5" y="-604.2" font-family="Times,serif" font-size="14.00">%17:</text>
<text text-anchor="start" x="373.5" y="-587.7" font-family="Times,serif" font-size="14.00">17: </text>
<text text-anchor="start" x="373.5" y="-571.2" font-family="Times,serif" font-size="14.00"> br label %18</text>
</g>
<!-- Node0x5627c2da4700&#45;&gt;Node0x5627c2da5130 -->
<g id="edge3" class="edge">
<title>Node0x5627c2da4700:s1&#45;&gt;Node0x5627c2da5130</title>
<path fill="none" stroke="black" d="M397.62,-740.5C397.62,-703.53 401.77,-661.53 405.38,-631.96"/>
<polygon fill="black" stroke="black" points="408.95,-632.63 406.72,-622.27 402,-631.76 408.95,-632.63"/>
</g>
<!-- Node0x5627c2da4e50 -->
<g id="node5" class="node">
<title>Node0x5627c2da4e50</title>
<polygon fill="#bb1b2c" fill-opacity="0.439216" stroke="#b70d28" points="83.5,-350 83.5,-424 257.75,-424 257.75,-350 83.5,-350"/>
<text text-anchor="start" x="91.5" y="-406.7" font-family="Times,serif" font-size="14.00">%15:</text>
<text text-anchor="start" x="91.5" y="-390.2" font-family="Times,serif" font-size="14.00">15: </text>
<text text-anchor="start" x="91.5" y="-373.7" font-family="Times,serif" font-size="14.00"> %16 = add nsw i32 %.01, 1</text>
<text text-anchor="start" x="91.5" y="-357.2" font-family="Times,serif" font-size="14.00"> br label %4, !llvm.loop !6</text>
</g>
<!-- Node0x5627c2da50a0&#45;&gt;Node0x5627c2da4e50 -->
<g id="edge4" class="edge">
<title>Node0x5627c2da50a0&#45;&gt;Node0x5627c2da4e50</title>
<path fill="none" stroke="black" d="M163.28,-481.53C164.57,-465.1 165.84,-448.97 166.95,-434.85"/>
<polygon fill="black" stroke="black" points="170.51,-435.23 167.8,-424.99 163.53,-434.69 170.51,-435.23"/>
</g>
<!-- Node0x5627c2da47c0 -->
<g id="node6" class="node">
<title>Node0x5627c2da47c0</title>
<polygon fill="#b70d28" fill-opacity="0.439216" stroke="#b70d28" points="291.25,-329.5 291.25,-444.5 530,-444.5 530,-329.5 291.25,-329.5"/>
<text text-anchor="start" x="299.25" y="-427.2" font-family="Times,serif" font-size="14.00">%18:</text>
<text text-anchor="start" x="299.25" y="-410.7" font-family="Times,serif" font-size="14.00">18: </text>
<text text-anchor="start" x="299.25" y="-394.2" font-family="Times,serif" font-size="14.00"> %.0 = phi i32 [ 0, %17 ], [ %27, %26 ]</text>
<text text-anchor="start" x="299.25" y="-377.7" font-family="Times,serif" font-size="14.00"> %19 = icmp slt i32 %.0, 10</text>
<text text-anchor="start" x="299.25" y="-361.2" font-family="Times,serif" font-size="14.00"> br i1 %19, label %20, label %28</text>
<polyline fill="none" stroke="#b70d28" points="291.25,-354 530,-354"/>
<text text-anchor="middle" x="350.88" y="-336.7" font-family="Times,serif" font-size="14.00">T</text>
<polyline fill="none" stroke="#b70d28" points="410.5,-329.5 410.5,-354"/>
<text text-anchor="middle" x="470.25" y="-336.7" font-family="Times,serif" font-size="14.00">F</text>
</g>
<!-- Node0x5627c2da5130&#45;&gt;Node0x5627c2da47c0 -->
<g id="edge6" class="edge">
<title>Node0x5627c2da5130&#45;&gt;Node0x5627c2da47c0</title>
<path fill="none" stroke="black" d="M410.62,-564.27C410.62,-536.39 410.62,-492.17 410.62,-454.99"/>
<polygon fill="black" stroke="black" points="414.13,-455.21 410.62,-445.21 407.13,-455.21 414.13,-455.21"/>
</g>
<!-- Node0x5627c2da4e50&#45;&gt;Node0x5627c2da4700 -->
<g id="edge5" class="edge">
<title>Node0x5627c2da4e50&#45;&gt;Node0x5627c2da4700</title>
<path fill="none" stroke="black" d="M240.85,-423.99C274.29,-442.67 309.07,-464.88 318.62,-481 363.77,-557.2 359.67,-662.63 350.4,-730.46"/>
<polygon fill="black" stroke="black" points="346.84,-729.61 348.87,-740.01 353.77,-730.61 346.84,-729.61"/>
</g>
<!-- Node0x5627c2da6390 -->
<g id="node7" class="node">
<title>Node0x5627c2da6390</title>
<polygon fill="#bb1b2c" fill-opacity="0.439216" stroke="#b70d28" points="74,-136 74,-292.5 383.25,-292.5 383.25,-136 74,-136"/>
<text text-anchor="start" x="82" y="-275.2" font-family="Times,serif" font-size="14.00">%20:</text>
<text text-anchor="start" x="82" y="-258.7" font-family="Times,serif" font-size="14.00">20: </text>
<text text-anchor="start" x="82" y="-242.2" font-family="Times,serif" font-size="14.00"> %21 = sext i32 %.0 to i64</text>
<text text-anchor="start" x="82" y="-225.7" font-family="Times,serif" font-size="14.00"> %22 = getelementptr inbounds i32, ptr %1, i64 %21</text>
<text text-anchor="start" x="82" y="-209.2" font-family="Times,serif" font-size="14.00"> %23 = load i32, ptr %22, align 4</text>
<text text-anchor="start" x="82" y="-192.7" font-family="Times,serif" font-size="14.00"> %24 = sext i32 %.0 to i64</text>
<text text-anchor="start" x="82" y="-176.2" font-family="Times,serif" font-size="14.00"> %25 = getelementptr inbounds i32, ptr %2, i64 %24</text>
<text text-anchor="start" x="82" y="-159.7" font-family="Times,serif" font-size="14.00"> store i32 %23, ptr %25, align 4</text>
<text text-anchor="start" x="82" y="-143.2" font-family="Times,serif" font-size="14.00"> br label %26</text>
</g>
<!-- Node0x5627c2da47c0&#45;&gt;Node0x5627c2da6390 -->
<g id="edge7" class="edge">
<title>Node0x5627c2da47c0:s0&#45;&gt;Node0x5627c2da6390</title>
<path fill="none" stroke="black" d="M290.62,-342C278.94,-342 267.36,-324.4 257.42,-302.32"/>
<polygon fill="black" stroke="black" points="260.27,-301.09 253.12,-293.27 253.83,-303.84 260.27,-301.09"/>
</g>
<!-- Node0x5627c2da6420 -->
<g id="node8" class="node">
<title>Node0x5627c2da6420</title>
<polygon fill="#b9d0f9" fill-opacity="0.439216" stroke="#3d50c3" points="439.75,-185.5 439.75,-243 501.5,-243 501.5,-185.5 439.75,-185.5"/>
<text text-anchor="start" x="447.75" y="-225.7" font-family="Times,serif" font-size="14.00">%28:</text>
<text text-anchor="start" x="447.75" y="-209.2" font-family="Times,serif" font-size="14.00">28: </text>
<text text-anchor="start" x="447.75" y="-192.7" font-family="Times,serif" font-size="14.00"> ret void</text>
</g>
<!-- Node0x5627c2da47c0&#45;&gt;Node0x5627c2da6420 -->
<g id="edge8" class="edge">
<title>Node0x5627c2da47c0:s1&#45;&gt;Node0x5627c2da6420</title>
<path fill="none" stroke="black" d="M470.62,-329C470.62,-303.94 470.62,-275.78 470.62,-253.75"/>
<polygon fill="black" stroke="black" points="474.13,-253.83 470.62,-243.83 467.13,-253.83 474.13,-253.83"/>
</g>
<!-- Node0x5627c2da6250 -->
<g id="node9" class="node">
<title>Node0x5627c2da6250</title>
<polygon fill="#bb1b2c" fill-opacity="0.439216" stroke="#b70d28" points="234.38,-25 234.38,-99 404.88,-99 404.88,-25 234.38,-25"/>
<text text-anchor="start" x="242.38" y="-81.7" font-family="Times,serif" font-size="14.00">%26:</text>
<text text-anchor="start" x="242.38" y="-65.2" font-family="Times,serif" font-size="14.00">26: </text>
<text text-anchor="start" x="242.38" y="-48.7" font-family="Times,serif" font-size="14.00"> %27 = add nsw i32 %.0, 1</text>
<text text-anchor="start" x="242.38" y="-32.2" font-family="Times,serif" font-size="14.00"> br label %18, !llvm.loop !8</text>
</g>
<!-- Node0x5627c2da6390&#45;&gt;Node0x5627c2da6250 -->
<g id="edge9" class="edge">
<title>Node0x5627c2da6390&#45;&gt;Node0x5627c2da6250</title>
<path fill="none" stroke="black" d="M275.19,-136.36C281.04,-126.71 286.86,-117.1 292.27,-108.17"/>
<polygon fill="black" stroke="black" points="295.78,-110.13 297.96,-99.77 289.79,-106.51 295.78,-110.13"/>
</g>
<!-- Node0x5627c2da6250&#45;&gt;Node0x5627c2da47c0 -->
<g id="edge10" class="edge">
<title>Node0x5627c2da6250&#45;&gt;Node0x5627c2da47c0</title>
<path fill="none" stroke="black" d="M365.73,-98.74C376.36,-109.37 386.37,-121.86 392.62,-135.5 419.16,-193.31 421.3,-266.57 418.23,-318.91"/>
<polygon fill="black" stroke="black" points="414.68,-318.53 417.5,-328.74 421.66,-319 414.68,-318.53"/>
</g>
</g>
</svg>
