<?xml version="1.0" encoding="UTF-8" standalone="no"?>
<!DOCTYPE svg PUBLIC "-//W3C//DTD SVG 1.1//EN"
 "http://www.w3.org/Graphics/SVG/1.1/DTD/svg11.dtd">
<!-- Generated by graphviz version 8.0.5 (0)
 -->
<!-- Title: CFG for &#39;foo&#39; function Pages: 1 -->
<svg width="905pt" height="728pt"
 viewBox="0.00 0.00 905.12 728.00" xmlns="http://www.w3.org/2000/svg" xmlns:xlink="http://www.w3.org/1999/xlink">
<g id="graph0" class="graph" transform="scale(1 1) rotate(0) translate(4 724)">
<title>CFG for &#39;foo&#39; function</title>
<polygon fill="white" stroke="none" points="-4,4 -4,-724 901.12,-724 901.12,4 -4,4"/>
<text text-anchor="middle" x="448.56" y="-7.95" font-family="Times,serif" font-size="14.00">CFG for &#39;foo&#39; function</text>
<!-- Node0x5559398040e0 -->
<g id="node1" class="node">
<title>Node0x5559398040e0</title>
<polygon fill="#abc8fd" fill-opacity="0.439216" stroke="#3d50c3" points="185.25,-677 185.25,-719.5 287.5,-719.5 287.5,-677 185.25,-677"/>
<text text-anchor="start" x="193.25" y="-702.2" font-family="Times,serif" font-size="14.00">%2:</text>
<text text-anchor="start" x="193.25" y="-684.95" font-family="Times,serif" font-size="14.00"> br label %3</text>
</g>
<!-- Node0x5559398041a0 -->
<g id="node2" class="node">
<title>Node0x5559398041a0</title>
<polygon fill="#b70d28" fill-opacity="0.439216" stroke="#b70d28" points="90.38,-399.75 90.38,-640 382.38,-640 382.38,-399.75 90.38,-399.75"/>
<text text-anchor="start" x="98.38" y="-622.7" font-family="Times,serif" font-size="14.00">%3:</text>
<text text-anchor="start" x="98.38" y="-605.45" font-family="Times,serif" font-size="14.00">3: </text>
<text text-anchor="start" x="98.38" y="-588.2" font-family="Times,serif" font-size="14.00"> %.05 = phi i32 [ 0, %2 ], [ %19, %15 ]</text>
<text text-anchor="start" x="98.38" y="-570.95" font-family="Times,serif" font-size="14.00"> %.04 = phi i32 [ 0, %2 ], [ %17, %15 ]</text>
<text text-anchor="start" x="98.38" y="-553.7" font-family="Times,serif" font-size="14.00"> %.03 = phi i32 [ 0, %2 ], [ %16, %15 ]</text>
<text text-anchor="start" x="98.38" y="-536.45" font-family="Times,serif" font-size="14.00"> %.01 = phi i32 [ 9, %2 ], [ %.1, %15 ]</text>
<text text-anchor="start" x="98.38" y="-519.2" font-family="Times,serif" font-size="14.00"> %.0 = phi i32 [ %1, %2 ], [ %4, %15 ]</text>
<text text-anchor="start" x="98.38" y="-501.95" font-family="Times,serif" font-size="14.00"> %4 = add nsw i32 %.0, 1</text>
<text text-anchor="start" x="98.38" y="-484.7" font-family="Times,serif" font-size="14.00"> %5 = add nsw i32 %0, 3</text>
<text text-anchor="start" x="98.38" y="-467.45" font-family="Times,serif" font-size="14.00"> %6 = add nsw i32 %0, 7</text>
<text text-anchor="start" x="98.38" y="-450.2" font-family="Times,serif" font-size="14.00"> %7 = icmp slt i32 %4, 5</text>
<text text-anchor="start" x="98.38" y="-432.95" font-family="Times,serif" font-size="14.00"> br i1 %7, label %8, label %11</text>
<polyline fill="none" stroke="#b70d28" points="90.38,-425 382.38,-425"/>
<text text-anchor="middle" x="162.88" y="-407.7" font-family="Times,serif" font-size="14.00">T</text>
<polyline fill="none" stroke="#b70d28" points="235.38,-399.75 235.38,-425"/>
<text text-anchor="middle" x="308.75" y="-407.7" font-family="Times,serif" font-size="14.00">F</text>
</g>
<!-- Node0x5559398040e0&#45;&gt;Node0x5559398041a0 -->
<g id="edge1" class="edge">
<title>Node0x5559398040e0&#45;&gt;Node0x5559398041a0</title>
<path fill="none" stroke="black" d="M236.38,-677.02C236.38,-669.56 236.38,-660.47 236.38,-650.45"/>
<polygon fill="black" stroke="black" points="239.88,-650.7 236.38,-640.7 232.88,-650.7 239.88,-650.7"/>
</g>
<!-- Node0x5559398050f0 -->
<g id="node3" class="node">
<title>Node0x5559398050f0</title>
<polygon fill="#dc5d4a" fill-opacity="0.439216" stroke="#3d50c3" points="0,-247.25 0,-341.5 208.75,-341.5 208.75,-247.25 0,-247.25"/>
<text text-anchor="start" x="8" y="-324.2" font-family="Times,serif" font-size="14.00">%8:</text>
<text text-anchor="start" x="8" y="-306.95" font-family="Times,serif" font-size="14.00">8: </text>
<text text-anchor="start" x="8" y="-289.7" font-family="Times,serif" font-size="14.00"> %9 = add nsw i32 %.01, 2</text>
<text text-anchor="start" x="8" y="-272.45" font-family="Times,serif" font-size="14.00"> %10 = add nsw i32 %0, 3</text>
<text text-anchor="start" x="8" y="-255.2" font-family="Times,serif" font-size="14.00"> br label %15</text>
</g>
<!-- Node0x5559398041a0&#45;&gt;Node0x5559398050f0 -->
<g id="edge2" class="edge">
<title>Node0x5559398041a0:s0&#45;&gt;Node0x5559398050f0</title>
<path fill="none" stroke="black" d="M89.38,-411.88C62.63,-411.88 67.23,-381.29 78.07,-351.46"/>
<polygon fill="black" stroke="black" points="81.61,-353.01 81.96,-342.42 75.09,-350.48 81.61,-353.01"/>
</g>
<!-- Node0x555939805140 -->
<g id="node4" class="node">
<title>Node0x555939805140</title>
<polygon fill="#dc5d4a" fill-opacity="0.439216" stroke="#3d50c3" points="264.75,-226 264.75,-362.75 514,-362.75 514,-226 264.75,-226"/>
<text text-anchor="start" x="272.75" y="-345.45" font-family="Times,serif" font-size="14.00">%11:</text>
<text text-anchor="start" x="272.75" y="-328.2" font-family="Times,serif" font-size="14.00">11: </text>
<text text-anchor="start" x="272.75" y="-310.95" font-family="Times,serif" font-size="14.00"> %12 = sub nsw i32 %.01, 1</text>
<text text-anchor="start" x="272.75" y="-293.7" font-family="Times,serif" font-size="14.00"> %13 = add nsw i32 %0, 4</text>
<text text-anchor="start" x="272.75" y="-276.45" font-family="Times,serif" font-size="14.00"> %14 = icmp sge i32 %4, 10</text>
<text text-anchor="start" x="272.75" y="-259.2" font-family="Times,serif" font-size="14.00"> br i1 %14, label %20, label %15</text>
<polyline fill="none" stroke="#3d50c3" points="264.75,-251.25 514,-251.25"/>
<text text-anchor="middle" x="326.75" y="-233.95" font-family="Times,serif" font-size="14.00">T</text>
<polyline fill="none" stroke="#3d50c3" points="388.75,-226 388.75,-251.25"/>
<text text-anchor="middle" x="451.12" y="-233.95" font-family="Times,serif" font-size="14.00">F</text>
</g>
<!-- Node0x5559398041a0&#45;&gt;Node0x555939805140 -->
<g id="edge3" class="edge">
<title>Node0x5559398041a0:s1&#45;&gt;Node0x555939805140</title>
<path fill="none" stroke="black" d="M383.38,-411.88C403.39,-411.88 408.85,-394.51 408,-373.19"/>
<polygon fill="black" stroke="black" points="411.43,-373.15 407.12,-363.47 404.45,-373.72 411.43,-373.15"/>
</g>
<!-- Node0x5559398048d0 -->
<g id="node5" class="node">
<title>Node0x5559398048d0</title>
<polygon fill="#b70d28" fill-opacity="0.439216" stroke="#b70d28" points="13.12,-25.75 13.12,-189 327.62,-189 327.62,-25.75 13.12,-25.75"/>
<text text-anchor="start" x="21.12" y="-171.7" font-family="Times,serif" font-size="14.00">%15:</text>
<text text-anchor="start" x="21.12" y="-154.45" font-family="Times,serif" font-size="14.00">15: </text>
<text text-anchor="start" x="21.12" y="-137.2" font-family="Times,serif" font-size="14.00"> %.02 = phi i32 [ %10, %8 ], [ %13, %11 ]</text>
<text text-anchor="start" x="21.12" y="-119.95" font-family="Times,serif" font-size="14.00"> %.1 = phi i32 [ %9, %8 ], [ %12, %11 ]</text>
<text text-anchor="start" x="21.12" y="-102.7" font-family="Times,serif" font-size="14.00"> %16 = add nsw i32 %5, 7</text>
<text text-anchor="start" x="21.12" y="-85.45" font-family="Times,serif" font-size="14.00"> %17 = add nsw i32 %.02, 2</text>
<text text-anchor="start" x="21.12" y="-68.2" font-family="Times,serif" font-size="14.00"> %18 = add nsw i32 %0, 7</text>
<text text-anchor="start" x="21.12" y="-50.95" font-family="Times,serif" font-size="14.00"> %19 = add nsw i32 %6, 5</text>
<text text-anchor="start" x="21.12" y="-33.7" font-family="Times,serif" font-size="14.00"> br label %3</text>
</g>
<!-- Node0x5559398050f0&#45;&gt;Node0x5559398048d0 -->
<g id="edge4" class="edge">
<title>Node0x5559398050f0&#45;&gt;Node0x5559398048d0</title>
<path fill="none" stroke="black" d="M120.69,-247.64C125.99,-232.8 132.06,-215.77 138.1,-198.83"/>
<polygon fill="black" stroke="black" points="141.59,-200.48 141.65,-189.88 135,-198.13 141.59,-200.48"/>
</g>
<!-- Node0x555939805140&#45;&gt;Node0x5559398048d0 -->
<g id="edge6" class="edge">
<title>Node0x555939805140:s1&#45;&gt;Node0x5559398048d0</title>
<path fill="none" stroke="black" d="M451.38,-225.5C451.38,-175.08 393.55,-205.25 337.76,-189.38"/>
<polygon fill="black" stroke="black" points="338.97,-185.76 328.38,-185.85 336.72,-192.38 338.97,-185.76"/>
</g>
<!-- Node0x555939805070 -->
<g id="node6" class="node">
<title>Node0x555939805070</title>
<polygon fill="#abc8fd" fill-opacity="0.439216" stroke="#3d50c3" points="345.62,-51.62 345.62,-163.12 897.12,-163.12 897.12,-51.62 345.62,-51.62"/>
<text text-anchor="start" x="353.62" y="-145.82" font-family="Times,serif" font-size="14.00">%20:</text>
<text text-anchor="start" x="353.62" y="-128.57" font-family="Times,serif" font-size="14.00">20: </text>
<text text-anchor="start" x="353.62" y="-111.33" font-family="Times,serif" font-size="14.00"> %21 = call i32 (i8*, ...) @printf(i8* getelementptr inbounds ([25 x i8], [25</text>
<text text-anchor="start" x="353.62" y="-94.08" font-family="Times,serif" font-size="14.00">... x i8]* @.str, i64 0, i64 0), i32 %12, i32 %13, i32 %.03, i32 %.04, i32 %6,</text>
<text text-anchor="start" x="353.62" y="-76.83" font-family="Times,serif" font-size="14.00">... i32 %.05, i32 %5, i32 %4)</text>
<text text-anchor="start" x="353.62" y="-59.58" font-family="Times,serif" font-size="14.00"> ret void</text>
</g>
<!-- Node0x555939805140&#45;&gt;Node0x555939805070 -->
<g id="edge5" class="edge">
<title>Node0x555939805140:s0&#45;&gt;Node0x555939805070</title>
<path fill="none" stroke="black" d="M326.38,-225.5C326.38,-203.48 355.12,-183.8 394.66,-167.14"/>
<polygon fill="black" stroke="black" points="395.71,-170.08 403.66,-163.08 393.07,-163.6 395.71,-170.08"/>
</g>
<!-- Node0x5559398048d0&#45;&gt;Node0x5559398041a0 -->
<g id="edge7" class="edge">
<title>Node0x5559398048d0&#45;&gt;Node0x5559398041a0</title>
<path fill="none" stroke="black" d="M206.53,-188.91C210.82,-200.98 214.64,-213.43 217.38,-225.5 229.34,-278.24 234.66,-337.59 236.78,-389.03"/>
<polygon fill="black" stroke="black" points="233.31,-389.02 237.18,-398.88 240.31,-388.76 233.31,-389.02"/>
</g>
</g>
</svg>
