<?xml version="1.0" encoding="UTF-8" standalone="no"?>
<!DOCTYPE svg PUBLIC "-//W3C//DTD SVG 1.1//EN"
 "http://www.w3.org/Graphics/SVG/1.1/DTD/svg11.dtd">
<!-- Generated by graphviz version 8.0.5 (0)
 -->
<!-- Title: CFG for &#39;foo&#39; function Pages: 1 -->
<svg width="905pt" height="728pt"
 viewBox="0.00 0.00 905.12 728.00" xmlns="http://www.w3.org/2000/svg" xmlns:xlink="http://www.w3.org/1999/xlink">
<g id="graph0" class="graph" transform="scale(1 1) rotate(0) translate(4 724)">
<title>CFG for &#39;foo&#39; function</title>
<polygon fill="white" stroke="none" points="-4,4 -4,-724 901.12,-724 901.12,4 -4,4"/>
<text text-anchor="middle" x="448.56" y="-7.95" font-family="Times,serif" font-size="14.00">CFG for &#39;foo&#39; function</text>
<!-- Node0x556346de1150 -->
<g id="node1" class="node">
<title>Node0x556346de1150</title>
<polygon fill="#abc8fd" fill-opacity="0.439216" stroke="#3d50c3" points="97.88,-642.5 97.88,-719.5 374.88,-719.5 374.88,-642.5 97.88,-642.5"/>
<text text-anchor="start" x="105.88" y="-702.2" font-family="Times,serif" font-size="14.00">%2:</text>
<text text-anchor="start" x="105.88" y="-684.95" font-family="Times,serif" font-size="14.00"> %3 = add nsw i32 %0, 3, !HOIST !0</text>
<text text-anchor="start" x="105.88" y="-667.7" font-family="Times,serif" font-size="14.00"> %4 = add nsw i32 %0, 7, !HOIST !0</text>
<text text-anchor="start" x="105.88" y="-650.45" font-family="Times,serif" font-size="14.00"> br label %5</text>
</g>
<!-- Node0x556346de29b0 -->
<g id="node2" class="node">
<title>Node0x556346de29b0</title>
<polygon fill="#b70d28" fill-opacity="0.439216" stroke="#b70d28" points="90.38,-399.75 90.38,-605.5 382.38,-605.5 382.38,-399.75 90.38,-399.75"/>
<text text-anchor="start" x="98.38" y="-588.2" font-family="Times,serif" font-size="14.00">%5:</text>
<text text-anchor="start" x="98.38" y="-570.95" font-family="Times,serif" font-size="14.00">5: </text>
<text text-anchor="start" x="98.38" y="-553.7" font-family="Times,serif" font-size="14.00"> %.05 = phi i32 [ 0, %2 ], [ %19, %15 ]</text>
<text text-anchor="start" x="98.38" y="-536.45" font-family="Times,serif" font-size="14.00"> %.04 = phi i32 [ 0, %2 ], [ %17, %15 ]</text>
<text text-anchor="start" x="98.38" y="-519.2" font-family="Times,serif" font-size="14.00"> %.03 = phi i32 [ 0, %2 ], [ %16, %15 ]</text>
<text text-anchor="start" x="98.38" y="-501.95" font-family="Times,serif" font-size="14.00"> %.01 = phi i32 [ 9, %2 ], [ %.1, %15 ]</text>
<text text-anchor="start" x="98.38" y="-484.7" font-family="Times,serif" font-size="14.00"> %.0 = phi i32 [ %1, %2 ], [ %6, %15 ]</text>
<text text-anchor="start" x="98.38" y="-467.45" font-family="Times,serif" font-size="14.00"> %6 = add nsw i32 %.0, 1</text>
<text text-anchor="start" x="98.38" y="-450.2" font-family="Times,serif" font-size="14.00"> %7 = icmp slt i32 %6, 5</text>
<text text-anchor="start" x="98.38" y="-432.95" font-family="Times,serif" font-size="14.00"> br i1 %7, label %8, label %11</text>
<polyline fill="none" stroke="#b70d28" points="90.38,-425 382.38,-425"/>
<text text-anchor="middle" x="162.88" y="-407.7" font-family="Times,serif" font-size="14.00">T</text>
<polyline fill="none" stroke="#b70d28" points="235.38,-399.75 235.38,-425"/>
<text text-anchor="middle" x="308.75" y="-407.7" font-family="Times,serif" font-size="14.00">F</text>
</g>
<!-- Node0x556346de1150&#45;&gt;Node0x556346de29b0 -->
<g id="edge1" class="edge">
<title>Node0x556346de1150&#45;&gt;Node0x556346de29b0</title>
<path fill="none" stroke="black" d="M236.38,-642.6C236.38,-634.44 236.38,-625.41 236.38,-615.97"/>
<polygon fill="black" stroke="black" points="239.88,-616.18 236.38,-606.18 232.88,-616.18 239.88,-616.18"/>
</g>
<!-- Node0x556346de32c0 -->
<g id="node3" class="node">
<title>Node0x556346de32c0</title>
<polygon fill="#dc5d4a" fill-opacity="0.439216" stroke="#3d50c3" points="0,-247.25 0,-341.5 208.75,-341.5 208.75,-247.25 0,-247.25"/>
<text text-anchor="start" x="8" y="-324.2" font-family="Times,serif" font-size="14.00">%8:</text>
<text text-anchor="start" x="8" y="-306.95" font-family="Times,serif" font-size="14.00">8: </text>
<text text-anchor="start" x="8" y="-289.7" font-family="Times,serif" font-size="14.00"> %9 = add nsw i32 %.01, 2</text>
<text text-anchor="start" x="8" y="-272.45" font-family="Times,serif" font-size="14.00"> %10 = add nsw i32 %0, 3</text>
<text text-anchor="start" x="8" y="-255.2" font-family="Times,serif" font-size="14.00"> br label %15</text>
</g>
<!-- Node0x556346de29b0&#45;&gt;Node0x556346de32c0 -->
<g id="edge2" class="edge">
<title>Node0x556346de29b0:s0&#45;&gt;Node0x556346de32c0</title>
<path fill="none" stroke="black" d="M89.38,-412.62C62.36,-412.62 67.09,-381.63 78.06,-351.51"/>
<polygon fill="black" stroke="black" points="81.64,-352.97 81.99,-342.38 75.11,-350.44 81.64,-352.97"/>
</g>
<!-- Node0x556346de3310 -->
<g id="node4" class="node">
<title>Node0x556346de3310</title>
<polygon fill="#dc5d4a" fill-opacity="0.439216" stroke="#3d50c3" points="264.75,-226 264.75,-362.75 514,-362.75 514,-226 264.75,-226"/>
<text text-anchor="start" x="272.75" y="-345.45" font-family="Times,serif" font-size="14.00">%11:</text>
<text text-anchor="start" x="272.75" y="-328.2" font-family="Times,serif" font-size="14.00">11: </text>
<text text-anchor="start" x="272.75" y="-310.95" font-family="Times,serif" font-size="14.00"> %12 = sub nsw i32 %.01, 1</text>
<text text-anchor="start" x="272.75" y="-293.7" font-family="Times,serif" font-size="14.00"> %13 = add nsw i32 %0, 4</text>
<text text-anchor="start" x="272.75" y="-276.45" font-family="Times,serif" font-size="14.00"> %14 = icmp sge i32 %6, 10</text>
<text text-anchor="start" x="272.75" y="-259.2" font-family="Times,serif" font-size="14.00"> br i1 %14, label %20, label %15</text>
<polyline fill="none" stroke="#3d50c3" points="264.75,-251.25 514,-251.25"/>
<text text-anchor="middle" x="326.75" y="-233.95" font-family="Times,serif" font-size="14.00">T</text>
<polyline fill="none" stroke="#3d50c3" points="388.75,-226 388.75,-251.25"/>
<text text-anchor="middle" x="451.12" y="-233.95" font-family="Times,serif" font-size="14.00">F</text>
</g>
<!-- Node0x556346de29b0&#45;&gt;Node0x556346de3310 -->
<g id="edge3" class="edge">
<title>Node0x556346de29b0:s1&#45;&gt;Node0x556346de3310</title>
<path fill="none" stroke="black" d="M383.38,-412.62C403.61,-412.62 409.05,-395 408.13,-373.41"/>
<polygon fill="black" stroke="black" points="411.55,-373.23 407.21,-363.56 404.57,-373.82 411.55,-373.23"/>
</g>
<!-- Node0x556346de2ae0 -->
<g id="node5" class="node">
<title>Node0x556346de2ae0</title>
<polygon fill="#b70d28" fill-opacity="0.439216" stroke="#b70d28" points="13.12,-25.75 13.12,-189 327.62,-189 327.62,-25.75 13.12,-25.75"/>
<text text-anchor="start" x="21.12" y="-171.7" font-family="Times,serif" font-size="14.00">%15:</text>
<text text-anchor="start" x="21.12" y="-154.45" font-family="Times,serif" font-size="14.00">15: </text>
<text text-anchor="start" x="21.12" y="-137.2" font-family="Times,serif" font-size="14.00"> %.02 = phi i32 [ %10, %8 ], [ %13, %11 ]</text>
<text text-anchor="start" x="21.12" y="-119.95" font-family="Times,serif" font-size="14.00"> %.1 = phi i32 [ %9, %8 ], [ %12, %11 ]</text>
<text text-anchor="start" x="21.12" y="-102.7" font-family="Times,serif" font-size="14.00"> %16 = add nsw i32 %3, 7</text>
<text text-anchor="start" x="21.12" y="-85.45" font-family="Times,serif" font-size="14.00"> %17 = add nsw i32 %.02, 2</text>
<text text-anchor="start" x="21.12" y="-68.2" font-family="Times,serif" font-size="14.00"> %18 = add nsw i32 %0, 7</text>
<text text-anchor="start" x="21.12" y="-50.95" font-family="Times,serif" font-size="14.00"> %19 = add nsw i32 %4, 5</text>
<text text-anchor="start" x="21.12" y="-33.7" font-family="Times,serif" font-size="14.00"> br label %5</text>
</g>
<!-- Node0x556346de32c0&#45;&gt;Node0x556346de2ae0 -->
<g id="edge4" class="edge">
<title>Node0x556346de32c0&#45;&gt;Node0x556346de2ae0</title>
<path fill="none" stroke="black" d="M120.69,-247.64C125.99,-232.8 132.06,-215.77 138.1,-198.83"/>
<polygon fill="black" stroke="black" points="141.59,-200.48 141.65,-189.88 135,-198.13 141.59,-200.48"/>
</g>
<!-- Node0x556346de3310&#45;&gt;Node0x556346de2ae0 -->
<g id="edge6" class="edge">
<title>Node0x556346de3310:s1&#45;&gt;Node0x556346de2ae0</title>
<path fill="none" stroke="black" d="M451.38,-225.5C451.38,-175.08 393.55,-205.25 337.76,-189.38"/>
<polygon fill="black" stroke="black" points="338.97,-185.76 328.38,-185.85 336.72,-192.38 338.97,-185.76"/>
</g>
<!-- Node0x556346de2960 -->
<g id="node6" class="node">
<title>Node0x556346de2960</title>
<polygon fill="#abc8fd" fill-opacity="0.439216" stroke="#3d50c3" points="345.62,-51.62 345.62,-163.12 897.12,-163.12 897.12,-51.62 345.62,-51.62"/>
<text text-anchor="start" x="353.62" y="-145.82" font-family="Times,serif" font-size="14.00">%20:</text>
<text text-anchor="start" x="353.62" y="-128.57" font-family="Times,serif" font-size="14.00">20: </text>
<text text-anchor="start" x="353.62" y="-111.33" font-family="Times,serif" font-size="14.00"> %21 = call i32 (i8*, ...) @printf(i8* getelementptr inbounds ([25 x i8], [25</text>
<text text-anchor="start" x="353.62" y="-94.08" font-family="Times,serif" font-size="14.00">... x i8]* @.str, i64 0, i64 0), i32 %12, i32 %13, i32 %.03, i32 %.04, i32 %4,</text>
<text text-anchor="start" x="353.62" y="-76.83" font-family="Times,serif" font-size="14.00">... i32 %.05, i32 %3, i32 %6)</text>
<text text-anchor="start" x="353.62" y="-59.58" font-family="Times,serif" font-size="14.00"> ret void</text>
</g>
<!-- Node0x556346de3310&#45;&gt;Node0x556346de2960 -->
<g id="edge5" class="edge">
<title>Node0x556346de3310:s0&#45;&gt;Node0x556346de2960</title>
<path fill="none" stroke="black" d="M326.38,-225.5C326.38,-203.48 355.12,-183.8 394.66,-167.14"/>
<polygon fill="black" stroke="black" points="395.71,-170.08 403.66,-163.08 393.07,-163.6 395.71,-170.08"/>
</g>
<!-- Node0x556346de2ae0&#45;&gt;Node0x556346de29b0 -->
<g id="edge7" class="edge">
<title>Node0x556346de2ae0&#45;&gt;Node0x556346de29b0</title>
<path fill="none" stroke="black" d="M206.48,-188.92C210.78,-200.99 214.61,-213.43 217.38,-225.5 229.49,-278.41 234.62,-338.39 236.56,-388.9"/>
<polygon fill="black" stroke="black" points="233.09,-388.98 236.94,-398.86 240.09,-388.74 233.09,-388.98"/>
</g>
</g>
</svg>
